<mxfile host="app.diagrams.net" modified="2023-09-23T11:50:18.473Z" agent="Mozilla/5.0 (Macintosh; Intel Mac OS X 10_15_7) AppleWebKit/537.36 (KHTML, like Gecko) Chrome/116.0.0.0 Safari/537.36" version="21.7.4" etag="p_jFKlv_5LkYsh8JSJNZ" type="github">
  <diagram name="Page-1" id="uk54TYLe6JI8V2IiqL8C">
    <mxGraphModel>
      <root>
        <mxCell id="0" />
        <mxCell id="1" parent="0" />
      </root>
    </mxGraphModel>
  </diagram>
</mxfile>
